<svg width="14" height="14" viewBox="0 0 14 14" fill="none" xmlns="http://www.w3.org/2000/svg">
<path d="M8.23309 1.26961L8.23336 1.2698L12.0733 3.9564C12.3592 4.15653 12.6393 4.49263 12.8484 4.89318C13.0575 5.29373 13.1733 5.71605 13.1733 6.06679V10.5868C13.1733 12.0106 12.0172 13.1668 10.5933 13.1668H3.40666C1.98421 13.1668 0.82666 12.0054 0.82666 10.5801V5.98012C0.82666 5.65568 0.931214 5.25494 1.1219 4.86765C1.31245 4.48064 1.56773 4.15033 1.82751 3.94771L1.82762 3.94762L5.16624 1.34203C5.16646 1.34186 5.16668 1.34168 5.1669 1.34151C6.00041 0.696223 7.36614 0.662199 8.23309 1.26961ZM6.99999 12.0001C7.54947 12.0001 7.99999 11.5496 7.99999 11.0001V9.00012C7.99999 8.45065 7.54947 8.00012 6.99999 8.00012C6.45052 8.00012 5.99999 8.45064 5.99999 9.00012V11.0001C5.99999 11.5496 6.45052 12.0001 6.99999 12.0001Z" stroke="black"/>
</svg>
