<svg width="147" height="147" viewBox="0 0 147 147" fill="none" xmlns="http://www.w3.org/2000/svg">
<path d="M100.976 81.1853H111.025L100.185 65.6298C102.753 64.3335 104.778 62.5434 106.247 60.3088C107.914 57.7903 108.729 54.7779 108.729 51.2841C108.729 47.7532 107.902 44.7286 106.247 42.1607C104.593 39.6174 102.247 37.6668 99.2102 36.2965C96.1608 34.9261 92.5435 34.2471 88.346 34.2471H68.1608H68.025V52.7532H46.8398V34.2471H35.9756V81.1853H46.8398V61.9384H68.025V81.1853H68.1608H72.383C71.7904 80.3829 71.3336 79.4076 71.0126 78.21C69.2842 71.7286 72.6176 66.1607 78.2472 63.8767C78.3089 63.852 78.3706 63.8273 78.4324 63.815C78.5929 63.7409 78.741 63.6915 78.8892 63.6421C78.9385 63.6174 78.9879 63.5927 79.0373 63.5804C79.8768 63.2841 80.7657 63.0742 81.6916 62.9384C84.5435 62.5187 87.9139 62.4446 91.062 63.0248C92.3953 63.2841 93.6793 63.6421 94.8768 64.1483C95.704 64.494 96.4818 64.9137 97.1978 65.3952C97.6299 65.7039 98.0497 66.0248 98.4324 66.4076C100.148 67.9631 101.371 70.0742 101.926 72.3335C102.605 75.1113 102.297 78.1113 101.173 80.7409C101.124 80.9137 101.05 81.0495 100.976 81.1853ZM86.2472 58.5434C83.1978 58.5434 80.5188 56.9384 79.025 54.531C78.9632 54.4569 78.9139 54.3705 78.8768 54.2965C78.1484 53.0495 77.741 51.5927 77.741 50.0372C77.741 48.4816 78.1484 47.0249 78.8768 45.7779C78.9139 45.7039 78.9632 45.6174 79.025 45.5434C79.6176 44.5681 80.4077 43.7532 81.3336 43.0989C82.7163 42.0989 84.42 41.5187 86.2472 41.5187C88.346 41.5187 90.2472 42.2841 91.7287 43.531C93.5805 45.0866 94.7534 47.4199 94.7657 50.0372C94.7534 54.7409 90.9509 58.5434 86.2472 58.5434Z" fill="white"/>
<path d="M17.9382 97.2596H16.1357V87.5312H17.9382V97.2596ZM23.1111 93.0868H17.7777V91.5436H23.0987V93.0868H23.1111ZM22.9629 87.5312H24.7654V97.2596H22.9629V87.5312Z" fill="white"/>
<path d="M29.3206 97.3584C28.6909 97.3584 28.1354 97.2349 27.6539 97.0003C27.1724 96.7658 26.8021 96.4078 26.5305 95.9139C26.2588 95.4324 26.123 94.8152 26.123 94.0744V89.8398H27.8638V93.8399C27.8638 94.5065 28.0119 95.0003 28.3206 95.3337C28.6169 95.667 29.049 95.8275 29.6045 95.8275C30.0119 95.8275 30.37 95.7411 30.6663 95.5806C30.9626 95.4201 31.2095 95.1608 31.37 94.8275C31.5428 94.4942 31.6292 94.0868 31.6292 93.5929V89.8398H33.37V97.2596H31.7156V95.2596L32.0119 95.8769C31.765 96.3584 31.3947 96.7287 30.9132 96.988C30.4193 97.2349 29.8885 97.3584 29.3206 97.3584Z" fill="white"/>
<path d="M43.9628 89.7534C44.5554 89.7534 45.0863 89.8645 45.543 90.0991C45.9998 90.3337 46.3579 90.6793 46.6171 91.1608C46.8764 91.6423 47.0122 92.2473 47.0122 93.0003V97.2472H45.2714V93.2226C45.2714 92.5682 45.1233 92.0744 44.8393 91.7534C44.5554 91.4324 44.1356 91.2719 43.6048 91.2719C43.2221 91.2719 42.8887 91.3584 42.5924 91.5189C42.2961 91.6793 42.0739 91.9263 41.9134 92.2596C41.7529 92.5806 41.6665 93.0003 41.6665 93.4942V97.2596H39.9258V93.2349C39.9258 92.5806 39.7776 92.0868 39.4937 91.7658C39.2097 91.4448 38.79 91.2843 38.2591 91.2843C37.8764 91.2843 37.543 91.3707 37.2467 91.5312C36.9504 91.6917 36.7282 91.9386 36.5677 92.2719C36.4072 92.5929 36.3208 93.0127 36.3208 93.5065V97.2719H34.5801V89.8522H36.2344V91.8275L35.9381 91.2473C36.185 90.7658 36.5554 90.3954 37.0245 90.1485C37.506 89.9016 38.0492 89.7781 38.6542 89.7781C39.3455 89.7781 39.9504 89.951 40.469 90.2966C40.9875 90.6423 41.3208 91.1608 41.4937 91.8522L40.8146 91.6176C41.0616 91.0621 41.4566 90.6176 42.0122 90.2843C42.5677 89.9509 43.2344 89.7534 43.9628 89.7534Z" fill="white"/>
<path d="M50.4324 97.3584C49.8769 97.3584 49.3954 97.2596 48.9756 97.0744C48.5559 96.8892 48.2349 96.6176 48.0127 96.2843C47.7904 95.9509 47.667 95.5682 47.667 95.1361C47.667 94.7164 47.7658 94.346 47.9633 94.0127C48.1608 93.6793 48.4942 93.4201 48.9386 93.2226C49.3954 93.025 50.0003 92.9263 50.7411 92.9263H52.9016V94.0744H50.8769C50.2843 94.0744 49.8892 94.1732 49.6793 94.3584C49.4695 94.5435 49.3707 94.7781 49.3707 95.0621C49.3707 95.3707 49.4942 95.63 49.7411 95.8152C49.988 96.0003 50.3337 96.0991 50.7781 96.0991C51.1979 96.0991 51.5806 96.0003 51.9263 95.8028C52.2596 95.6053 52.5065 95.3213 52.6546 94.9386L52.9509 95.9756C52.7904 96.4077 52.4818 96.7534 52.0497 96.988C51.63 97.2349 51.0867 97.3584 50.4324 97.3584ZM52.7658 97.2596V95.7534L52.667 95.4324V92.8028C52.667 92.2966 52.5188 91.9016 52.2102 91.6176C51.9016 91.3337 51.4448 91.1979 50.8151 91.1979C50.3954 91.1979 49.988 91.2596 49.5806 91.3954C49.1732 91.5312 48.8398 91.704 48.5559 91.9386L47.8769 90.6793C48.2719 90.3707 48.7534 90.1485 49.2966 89.988C49.8398 89.8275 50.4201 89.7534 51.0127 89.7534C52.0867 89.7534 52.9139 90.0127 53.5065 90.5189C54.0991 91.0374 54.383 91.8275 54.383 92.9016V97.2472H52.7658V97.2596Z" fill="white"/>
<path d="M59.79 89.7534C60.3825 89.7534 60.9134 89.8645 61.3825 90.0991C61.8517 90.3337 62.2221 90.6793 62.4937 91.1608C62.7653 91.6423 62.9011 92.2473 62.9011 93.0003V97.2472H61.1603V93.2226C61.1603 92.5682 60.9998 92.0744 60.6912 91.7534C60.3825 91.4324 59.9504 91.2719 59.3949 91.2719C58.9875 91.2719 58.6295 91.3584 58.3085 91.5189C57.9875 91.6793 57.7529 91.9386 57.5801 92.2596C57.4072 92.5929 57.3208 93.0003 57.3208 93.5065V97.2596H55.5801V89.8398H57.2344V91.8398L56.9381 91.2226C57.1974 90.7534 57.5801 90.3831 58.0739 90.1361C58.5801 89.8769 59.148 89.7534 59.79 89.7534Z" fill="white"/>
<path d="M67.0244 97.2596V87.5312H71.0244C71.8886 87.5312 72.6294 87.667 73.2343 87.951C73.8516 88.2349 74.3207 88.63 74.654 89.1485C74.9874 89.667 75.1602 90.2843 75.1602 91.0004C75.1602 91.7164 74.9997 92.3337 74.654 92.8399C74.3207 93.3584 73.8392 93.7535 73.2343 94.0251C72.617 94.2967 71.8763 94.4325 71.0244 94.4325H68.0244L68.8269 93.6177V97.272H67.0244V97.2596ZM68.8269 93.8029L68.0244 92.9387H70.938C71.7405 92.9387 72.3331 92.7658 72.7405 92.4201C73.1479 92.0745 73.3454 91.6053 73.3454 90.988C73.3454 90.3708 73.1479 89.8893 72.7405 89.5559C72.3331 89.2226 71.7405 89.0498 70.938 89.0498H68.0244L68.8269 88.1609V93.8029ZM73.3824 97.2596L70.9256 93.7288H72.8516L75.3207 97.2596H73.3824Z" fill="white"/>
<path d="M79.4572 97.3584C78.63 97.3584 77.914 97.1979 77.2967 96.8645C76.6794 96.5312 76.1979 96.0868 75.8646 95.5065C75.5312 94.9263 75.3584 94.2719 75.3584 93.5435C75.3584 92.8028 75.5189 92.1485 75.8522 91.5806C76.1856 91.0127 76.63 90.5682 77.2103 90.2349C77.7905 89.9139 78.4448 89.7534 79.1856 89.7534C79.9016 89.7534 80.5559 89.9139 81.1115 90.2226C81.667 90.5312 82.1238 90.988 82.4448 91.5559C82.7658 92.1238 82.9263 92.8028 82.9263 93.5806C82.9263 93.6547 82.9263 93.7411 82.914 93.8275C82.9016 93.9139 82.9016 94.0127 82.8893 94.0868H76.7041V92.9386H81.9757L81.2967 93.2966C81.309 92.8769 81.2226 92.4942 81.0374 92.1732C80.8522 91.8522 80.6053 91.5929 80.2843 91.4077C79.9633 91.2226 79.593 91.1361 79.1856 91.1361C78.7535 91.1361 78.3831 91.2349 78.0621 91.4077C77.7411 91.5929 77.4942 91.8522 77.309 92.1732C77.1238 92.4942 77.0374 92.8892 77.0374 93.3337V93.6053C77.0374 94.0497 77.1362 94.4448 77.3461 94.7905C77.5559 95.1361 77.8399 95.3954 78.2102 95.5806C78.5806 95.7658 79.0127 95.8645 79.4942 95.8645C79.914 95.8645 80.2843 95.8028 80.6177 95.667C80.951 95.5435 81.2473 95.3337 81.5065 95.0497L82.4325 96.1238C82.0991 96.5189 81.6794 96.8151 81.1732 97.025C80.667 97.2349 80.1115 97.3584 79.4572 97.3584Z" fill="white"/>
<path d="M85.864 97.3582C85.2467 97.3582 84.6541 97.2718 84.0738 97.1113C83.4936 96.9508 83.0492 96.7533 82.7158 96.5187L83.3825 95.1977C83.7158 95.4076 84.1109 95.5928 84.58 95.7286C85.0492 95.8644 85.5059 95.9385 85.9751 95.9385C86.5183 95.9385 86.9133 95.8644 87.1603 95.7162C87.4072 95.5681 87.5306 95.3706 87.5306 95.1237C87.5306 94.9138 87.4442 94.7656 87.2837 94.6545C87.1232 94.5434 86.901 94.4693 86.6294 94.4076C86.3578 94.3459 86.0615 94.2965 85.7282 94.2595C85.3948 94.2101 85.0738 94.1483 84.7405 94.0743C84.4072 94.0002 84.1109 93.8767 83.8393 93.7286C83.5677 93.5804 83.3578 93.3706 83.185 93.1113C83.0121 92.852 82.938 92.5064 82.938 92.0866C82.938 91.6175 83.0738 91.2101 83.3455 90.852C83.6171 90.494 83.9874 90.2348 84.4813 90.0496C84.9627 89.8644 85.543 89.7656 86.2096 89.7656C86.7158 89.7656 87.2096 89.815 87.7282 89.9261C88.2343 90.0372 88.6541 90.1977 88.9874 90.3953L88.3208 91.7162C87.9627 91.5064 87.6171 91.3582 87.259 91.2841C86.901 91.2101 86.543 91.1607 86.1973 91.1607C85.6664 91.1607 85.2714 91.2348 85.0245 91.3953C84.7652 91.5557 84.6417 91.7533 84.6417 91.9879C84.6417 92.2101 84.7282 92.3829 84.8887 92.494C85.0615 92.6051 85.2714 92.6915 85.543 92.7533C85.8146 92.815 86.1109 92.8767 86.4442 92.9138C86.7775 92.9508 87.0985 93.0125 87.4195 93.099C87.7405 93.1854 88.0368 93.2965 88.3208 93.4446C88.6047 93.5928 88.8146 93.7903 88.9874 94.0496C89.1479 94.3088 89.2343 94.6422 89.2343 95.0619C89.2343 95.5311 89.0985 95.9261 88.8269 96.2718C88.5553 96.6175 88.1603 96.8767 87.6664 97.0743C87.1603 97.2594 86.5677 97.3582 85.864 97.3582Z" fill="white"/>
<path d="M93.0248 97.3584C92.2594 97.3584 91.5927 97.1979 91.0001 96.8645C90.4075 96.5312 89.9384 96.0868 89.5927 95.5065C89.2471 94.9263 89.0742 94.2719 89.0742 93.5435C89.0742 92.8028 89.2471 92.1485 89.5927 91.5806C89.9384 91.0127 90.4075 90.5682 91.0001 90.2349C91.5927 89.9139 92.2717 89.7534 93.0248 89.7534C93.7903 89.7534 94.4816 89.9139 95.0742 90.2349C95.6668 90.5559 96.1359 91.0003 96.4816 91.5682C96.815 92.1361 96.9878 92.7905 96.9878 93.5435C96.9878 94.2719 96.815 94.9263 96.4816 95.5065C96.1483 96.0744 95.6792 96.5312 95.0742 96.8645C94.4816 97.1855 93.7903 97.3584 93.0248 97.3584ZM93.0248 95.8645C93.4446 95.8645 93.8273 95.7658 94.1606 95.5929C94.494 95.4077 94.7532 95.1361 94.9508 94.7905C95.136 94.4324 95.2347 94.025 95.2347 93.5559C95.2347 93.0744 95.136 92.6547 94.9508 92.309C94.7656 91.9633 94.494 91.6917 94.1606 91.5065C93.8273 91.3213 93.4569 91.2226 93.0372 91.2226C92.6174 91.2226 92.2347 91.3213 91.9014 91.5065C91.568 91.6917 91.3088 91.9633 91.1113 92.309C90.9137 92.6547 90.815 93.0744 90.815 93.5559C90.815 94.025 90.9137 94.4448 91.1113 94.7905C91.3088 95.1485 91.568 95.4077 91.9014 95.5929C92.2347 95.7781 92.6051 95.8645 93.0248 95.8645Z" fill="white"/>
<path d="M100.753 97.3584C100.124 97.3584 99.568 97.2349 99.0865 97.0003C98.6051 96.7658 98.2347 96.4078 97.9631 95.9139C97.6915 95.4324 97.5557 94.8152 97.5557 94.0744V89.8398H99.2964V93.8399C99.2964 94.5065 99.4446 95.0003 99.7532 95.3337C100.049 95.667 100.482 95.8275 101.037 95.8275C101.445 95.8275 101.803 95.7411 102.099 95.5806C102.395 95.4201 102.642 95.1608 102.803 94.8275C102.975 94.4942 103.062 94.0868 103.062 93.5929V89.8398H104.803V97.2596H103.148V95.2596L103.445 95.8769C103.198 96.3584 102.827 96.7287 102.346 96.988C101.852 97.2349 101.333 97.3584 100.753 97.3584Z" fill="white"/>
<path d="M106.037 97.2595V89.8397H107.691V91.8891L107.494 91.2965C107.716 90.7903 108.062 90.4199 108.543 90.1607C109.025 89.9014 109.617 89.7656 110.333 89.7656V91.42C110.259 91.4076 110.185 91.3953 110.124 91.3829C110.062 91.3829 110 91.3706 109.926 91.3706C109.272 91.3706 108.741 91.5681 108.358 91.9508C107.975 92.3335 107.778 92.9014 107.778 93.6669V97.2718H106.037V97.2595Z" fill="white"/>
<path d="M114.098 97.3584C113.321 97.3584 112.629 97.1979 112.024 96.8645C111.419 96.5312 110.938 96.0868 110.604 95.5065C110.259 94.9263 110.086 94.2719 110.086 93.5435C110.086 92.8028 110.259 92.1485 110.604 91.5806C110.95 91.0127 111.419 90.5682 112.024 90.2349C112.629 89.9139 113.321 89.7534 114.098 89.7534C114.814 89.7534 115.456 89.9016 116.012 90.1855C116.567 90.4818 116.987 90.9016 117.271 91.4695L115.938 92.2473C115.716 91.8892 115.444 91.63 115.123 91.4695C114.802 91.309 114.456 91.2226 114.086 91.2226C113.654 91.2226 113.271 91.3213 112.938 91.5065C112.592 91.6917 112.321 91.9633 112.135 92.309C111.938 92.6547 111.839 93.0744 111.839 93.5559C111.839 94.0374 111.938 94.4571 112.135 94.8028C112.333 95.1485 112.604 95.4201 112.938 95.6053C113.283 95.7905 113.666 95.8769 114.086 95.8769C114.456 95.8769 114.802 95.7905 115.123 95.63C115.444 95.4571 115.716 95.1979 115.938 94.8522L117.271 95.63C116.987 96.1855 116.567 96.6176 116.012 96.9139C115.456 97.2102 114.814 97.3584 114.098 97.3584Z" fill="white"/>
<path d="M121.099 97.3584C120.272 97.3584 119.556 97.1979 118.938 96.8645C118.321 96.5312 117.84 96.0868 117.506 95.5065C117.173 94.9263 117 94.2719 117 93.5435C117 92.8028 117.16 92.1485 117.494 91.5806C117.827 91.0127 118.272 90.5682 118.852 90.2349C119.432 89.9139 120.086 89.7534 120.827 89.7534C121.543 89.7534 122.198 89.9139 122.753 90.2226C123.309 90.5312 123.765 90.988 124.086 91.5559C124.407 92.1238 124.568 92.8028 124.568 93.5806C124.568 93.6547 124.568 93.7411 124.556 93.8275C124.543 93.9139 124.543 94.0127 124.531 94.0868H118.346V92.9386H123.617L122.938 93.2966C122.951 92.8769 122.864 92.4942 122.679 92.1732C122.494 91.8522 122.247 91.5929 121.926 91.4077C121.605 91.2226 121.235 91.1361 120.827 91.1361C120.395 91.1361 120.025 91.2349 119.704 91.4077C119.383 91.5929 119.136 91.8522 118.951 92.1732C118.765 92.4942 118.679 92.8892 118.679 93.3337V93.6053C118.679 94.0497 118.778 94.4448 118.988 94.7905C119.198 95.1361 119.481 95.3954 119.852 95.5806C120.222 95.7658 120.654 95.8645 121.136 95.8645C121.556 95.8645 121.926 95.8028 122.259 95.667C122.593 95.5435 122.889 95.3337 123.148 95.0497L124.074 96.1238C123.741 96.5189 123.321 96.8151 122.815 97.025C122.309 97.2349 121.753 97.3584 121.099 97.3584Z" fill="white"/>
<path d="M127.507 97.3582C126.889 97.3582 126.297 97.2718 125.716 97.1113C125.136 96.9508 124.692 96.7533 124.358 96.5187L125.025 95.1977C125.358 95.4076 125.753 95.5928 126.223 95.7286C126.692 95.8644 127.149 95.9385 127.618 95.9385C128.161 95.9385 128.556 95.8644 128.803 95.7162C129.05 95.5681 129.173 95.3706 129.173 95.1237C129.173 94.9138 129.087 94.7656 128.926 94.6545C128.766 94.5434 128.544 94.4693 128.272 94.4076C128 94.3459 127.704 94.2965 127.371 94.2595C127.037 94.2101 126.716 94.1483 126.383 94.0743C126.05 94.0002 125.753 93.8767 125.482 93.7286C125.21 93.5804 125 93.3706 124.828 93.1113C124.655 92.852 124.581 92.5064 124.581 92.0866C124.581 91.6175 124.716 91.2101 124.988 90.852C125.26 90.494 125.63 90.2348 126.124 90.0496C126.605 89.8644 127.186 89.7656 127.852 89.7656C128.358 89.7656 128.852 89.815 129.371 89.9261C129.877 90.0372 130.297 90.1977 130.63 90.3953L129.963 91.7162C129.605 91.5064 129.26 91.3582 128.902 91.2841C128.544 91.2101 128.186 91.1607 127.84 91.1607C127.309 91.1607 126.914 91.2348 126.667 91.3953C126.408 91.5557 126.284 91.7533 126.284 91.9879C126.284 92.2101 126.371 92.3829 126.531 92.494C126.704 92.6051 126.914 92.6915 127.186 92.7533C127.457 92.815 127.753 92.8767 128.087 92.9138C128.42 92.9508 128.741 93.0125 129.062 93.099C129.383 93.1854 129.679 93.2965 129.963 93.4446C130.247 93.5928 130.457 93.7903 130.63 94.0496C130.79 94.3088 130.877 94.6422 130.877 95.0619C130.877 95.5311 130.741 95.9261 130.47 96.2718C130.198 96.6175 129.803 96.8767 129.309 97.0743C128.803 97.2594 128.21 97.3582 127.507 97.3582Z" fill="white"/>
<path d="M31.9756 110V100.272H32.5682L37.0867 108.074H36.7657L41.2719 100.272H41.8521L41.8645 110H41.1731L41.1608 101.346H41.3583L37.0867 108.716H36.741L32.4571 101.346H32.6669V110H31.9756Z" fill="white"/>
<path d="M45.9506 110.05C45.4198 110.05 44.9506 109.963 44.5556 109.79C44.1605 109.617 43.8642 109.371 43.6543 109.062C43.4445 108.741 43.3457 108.383 43.3457 107.975C43.3457 107.605 43.4321 107.272 43.605 106.963C43.7778 106.667 44.0617 106.42 44.4568 106.222C44.8519 106.037 45.3827 105.938 46.0494 105.938H48.7161V106.482H46.0618C45.3087 106.482 44.7901 106.617 44.4815 106.901C44.1852 107.173 44.0247 107.531 44.0247 107.938C44.0247 108.408 44.1976 108.778 44.5556 109.05C44.9136 109.321 45.4074 109.469 46.0371 109.469C46.6543 109.469 47.1605 109.334 47.5803 109.05C48 108.766 48.3087 108.371 48.5185 107.84L48.7161 108.309C48.5185 108.84 48.1852 109.259 47.7284 109.568C47.2716 109.901 46.679 110.05 45.9506 110.05ZM48.5679 110V108.346L48.5432 108.099V105.371C48.5432 104.692 48.358 104.185 47.9877 103.827C47.6173 103.469 47.0864 103.296 46.3827 103.296C45.8766 103.296 45.4198 103.383 44.9877 103.556C44.5556 103.729 44.1852 103.951 43.8889 104.21L43.5432 103.704C43.9013 103.383 44.3334 103.124 44.8519 102.951C45.3704 102.778 45.8889 102.679 46.4445 102.679C47.3457 102.679 48.0371 102.901 48.5185 103.358C49 103.815 49.2469 104.494 49.2469 105.383V109.988H48.5679V110Z" fill="white"/>
<path d="M54.6051 102.692C55.1977 102.692 55.7162 102.803 56.1483 103.038C56.5804 103.272 56.9261 103.605 57.173 104.062C57.4199 104.519 57.5434 105.087 57.5434 105.766V110.001H56.852V105.815C56.852 105.001 56.6421 104.383 56.2347 103.951C55.8273 103.531 55.2471 103.309 54.5063 103.309C53.9384 103.309 53.4446 103.42 53.0372 103.655C52.6174 103.889 52.3088 104.21 52.0866 104.63C51.8643 105.05 51.7656 105.544 51.7656 106.136V110.001H51.0742V102.741H51.7409V104.754L51.6421 104.531C51.8643 103.951 52.2347 103.507 52.7409 103.173C53.2347 102.852 53.8643 102.692 54.6051 102.692Z" fill="white"/>
<path d="M61.3217 110.05C60.7909 110.05 60.3217 109.963 59.9267 109.79C59.5316 109.617 59.2353 109.371 59.0254 109.062C58.8156 108.741 58.7168 108.383 58.7168 107.975C58.7168 107.605 58.8032 107.272 58.9761 106.963C59.1489 106.667 59.4328 106.42 59.8279 106.222C60.223 106.037 60.7538 105.938 61.4205 105.938H64.0872V106.482H61.4328C60.6798 106.482 60.1612 106.617 59.8526 106.901C59.5563 107.173 59.3958 107.531 59.3958 107.938C59.3958 108.408 59.5686 108.778 59.9267 109.05C60.2847 109.321 60.7785 109.469 61.4082 109.469C62.0254 109.469 62.5316 109.334 62.9514 109.05C63.3711 108.766 63.6798 108.371 63.8896 107.84L64.0872 108.309C63.8896 108.84 63.5563 109.259 63.0995 109.568C62.6427 109.901 62.0501 110.05 61.3217 110.05ZM63.939 110V108.346L63.9143 108.099V105.371C63.9143 104.692 63.7291 104.185 63.3588 103.827C62.9884 103.469 62.4575 103.296 61.7538 103.296C61.2477 103.296 60.7909 103.383 60.3588 103.556C59.9267 103.729 59.5563 103.951 59.26 104.21L58.9143 103.704C59.2724 103.383 59.7044 103.124 60.223 102.951C60.7415 102.778 61.26 102.679 61.8156 102.679C62.7168 102.679 63.4082 102.901 63.8896 103.358C64.3711 103.815 64.618 104.494 64.618 105.383V109.988H63.939V110Z" fill="white"/>
<path d="M69.2472 109.741C68.5558 109.741 67.9509 109.593 67.4077 109.284C66.8644 108.988 66.4324 108.568 66.1114 108.038C65.7904 107.507 65.6299 106.902 65.6299 106.21C65.6299 105.519 65.7904 104.902 66.1114 104.371C66.4324 103.84 66.8644 103.433 67.4077 103.136C67.9509 102.84 68.5682 102.692 69.2472 102.692C69.9015 102.692 70.4941 102.84 71.0249 103.112C71.5435 103.396 71.9632 103.803 72.2719 104.322C72.5805 104.84 72.7286 105.47 72.7286 106.21C72.7286 106.926 72.5805 107.556 72.2719 108.087C71.9632 108.618 71.5558 109.025 71.0249 109.309C70.4941 109.593 69.9015 109.741 69.2472 109.741ZM69.4447 112.754C68.7904 112.754 68.1607 112.655 67.5682 112.445C66.9756 112.235 66.4941 111.963 66.1237 111.593L66.4941 111.062C66.8521 111.396 67.2842 111.655 67.7904 111.84C68.2965 112.025 68.8398 112.124 69.42 112.124C70.3953 112.124 71.1114 111.902 71.5682 111.445C72.0249 110.988 72.2595 110.272 72.2595 109.309V107.284L72.3953 106.198L72.2842 105.112V102.741H72.9509V109.223C72.9509 110.433 72.6546 111.334 72.0743 111.902C71.4817 112.47 70.6052 112.754 69.4447 112.754ZM69.3089 109.112C69.8891 109.112 70.4077 108.988 70.8521 108.741C71.2965 108.494 71.6422 108.149 71.9015 107.717C72.1607 107.284 72.2842 106.778 72.2842 106.21C72.2842 105.643 72.1607 105.136 71.9015 104.692C71.6422 104.26 71.2965 103.914 70.8521 103.68C70.4077 103.445 69.8891 103.322 69.3089 103.322C68.741 103.322 68.2348 103.445 67.7904 103.68C67.3459 103.914 66.9879 104.26 66.7286 104.692C66.4694 105.124 66.3459 105.63 66.3459 106.21C66.3459 106.778 66.4694 107.284 66.7286 107.717C66.9879 108.161 67.3336 108.494 67.7904 108.741C68.2348 108.988 68.741 109.112 69.3089 109.112Z" fill="white"/>
<path d="M77.815 110.05C77.0866 110.05 76.4322 109.889 75.8767 109.581C75.3211 109.272 74.8767 108.828 74.5557 108.272C74.2347 107.717 74.0742 107.087 74.0742 106.371C74.0742 105.655 74.2224 105.013 74.531 104.457C74.8273 103.902 75.2471 103.47 75.7779 103.161C76.3088 102.852 76.9014 102.692 77.5557 102.692C78.21 102.692 78.8026 102.84 79.3335 103.149C79.852 103.457 80.2718 103.877 80.568 104.433C80.8643 104.988 81.0248 105.618 81.0248 106.346C81.0248 106.371 81.0248 106.408 81.0125 106.433C81.0001 106.457 81.0125 106.494 81.0125 106.531H74.6051V105.988H80.6421L80.3705 106.247C80.3829 105.68 80.2594 105.173 80.0125 104.729C79.7656 104.284 79.4322 103.926 79.0248 103.667C78.6051 103.408 78.1236 103.284 77.5804 103.284C77.0372 103.284 76.568 103.408 76.1359 103.667C75.7162 103.926 75.3829 104.272 75.1359 104.729C74.9014 105.173 74.7779 105.692 74.7779 106.26V106.383C74.7779 106.976 74.9137 107.507 75.173 107.963C75.4322 108.42 75.8026 108.778 76.2594 109.038C76.7285 109.297 77.2471 109.42 77.8396 109.42C78.3088 109.42 78.7409 109.334 79.1359 109.173C79.5434 109.013 79.8767 108.754 80.1606 108.408L80.568 108.865C80.2471 109.26 79.852 109.544 79.3829 109.741C78.8767 109.951 78.3705 110.05 77.815 110.05Z" fill="white"/>
<path d="M91.1481 102.692C91.7283 102.692 92.2345 102.803 92.6666 103.037C93.0987 103.259 93.432 103.605 93.679 104.062C93.9259 104.519 94.037 105.087 94.037 105.766V110H93.3456V105.815C93.3456 105 93.1481 104.383 92.753 103.951C92.358 103.531 91.8024 103.309 91.0864 103.309C90.5431 103.309 90.0617 103.42 89.6666 103.655C89.2715 103.889 88.9629 104.21 88.753 104.63C88.5432 105.05 88.432 105.543 88.432 106.136V110H87.7407V105.815C87.7407 105 87.5431 104.383 87.1481 103.951C86.753 103.531 86.1975 103.309 85.4814 103.309C84.9382 103.309 84.4567 103.42 84.0617 103.655C83.6666 103.889 83.358 104.21 83.1481 104.63C82.9382 105.05 82.8271 105.543 82.8271 106.136V110H82.1357V102.741H82.8024V104.741L82.7036 104.519C82.9135 103.951 83.2715 103.506 83.7777 103.173C84.2839 102.84 84.8765 102.679 85.5802 102.679C86.2962 102.679 86.9135 102.864 87.4074 103.235C87.9012 103.605 88.2098 104.148 88.3456 104.864L88.1111 104.766C88.3086 104.148 88.6666 103.642 89.2098 103.259C89.7283 102.877 90.3827 102.692 91.1481 102.692Z" fill="white"/>
<path d="M98.815 110.05C98.0866 110.05 97.4322 109.889 96.8767 109.581C96.3211 109.272 95.8767 108.828 95.5557 108.272C95.2347 107.717 95.0742 107.087 95.0742 106.371C95.0742 105.655 95.2224 105.013 95.531 104.457C95.8273 103.902 96.2471 103.47 96.7779 103.161C97.3088 102.852 97.9014 102.692 98.5557 102.692C99.21 102.692 99.8026 102.84 100.333 103.149C100.852 103.457 101.272 103.877 101.568 104.433C101.864 104.988 102.025 105.618 102.025 106.346C102.025 106.371 102.025 106.408 102.012 106.433C102 106.457 102.012 106.494 102.012 106.531H95.6051V105.988H101.642L101.371 106.247C101.383 105.68 101.259 105.173 101.012 104.729C100.766 104.284 100.432 103.926 100.025 103.667C99.6051 103.408 99.1236 103.284 98.5804 103.284C98.0372 103.284 97.568 103.408 97.1359 103.667C96.7162 103.926 96.3829 104.272 96.1359 104.729C95.9014 105.173 95.7779 105.692 95.7779 106.26V106.383C95.7779 106.976 95.9137 107.507 96.173 107.963C96.4322 108.42 96.8026 108.778 97.2594 109.038C97.7285 109.297 98.2471 109.42 98.8396 109.42C99.3088 109.42 99.7409 109.334 100.136 109.173C100.543 109.013 100.877 108.754 101.161 108.408L101.568 108.865C101.247 109.26 100.852 109.544 100.383 109.741C99.8767 109.951 99.3705 110.05 98.815 110.05Z" fill="white"/>
<path d="M106.667 102.692C107.259 102.692 107.778 102.803 108.21 103.038C108.642 103.272 108.988 103.605 109.235 104.062C109.481 104.519 109.605 105.087 109.605 105.766V110.001H108.914V105.815C108.914 105.001 108.704 104.383 108.296 103.951C107.889 103.531 107.309 103.309 106.568 103.309C106 103.309 105.506 103.42 105.099 103.655C104.679 103.889 104.37 104.21 104.148 104.63C103.926 105.05 103.827 105.544 103.827 106.136V110.001H103.136V102.741H103.802V104.754L103.704 104.531C103.926 103.951 104.296 103.507 104.802 103.173C105.296 102.852 105.926 102.692 106.667 102.692Z" fill="white"/>
<path d="M110.234 103.346V102.753H114.568V103.346H110.234ZM113.543 110.05C112.901 110.05 112.42 109.877 112.074 109.519C111.741 109.161 111.568 108.679 111.568 108.074V101.148H112.259V108C112.259 108.469 112.37 108.815 112.605 109.074C112.839 109.321 113.173 109.445 113.605 109.445C114.062 109.445 114.432 109.309 114.728 109.037L115.024 109.519C114.839 109.692 114.617 109.827 114.345 109.902C114.086 110.013 113.815 110.05 113.543 110.05Z" fill="white"/>
</svg>
