<svg width="16" height="16" viewBox="0 0 16 16" fill="none" xmlns="http://www.w3.org/2000/svg">
<path d="M3.65323 12.3267V10.38C3.65323 9.73338 4.15989 9.15336 4.87989 9.15336C5.52656 9.15336 6.10656 9.66005 6.10656 10.38V12.2534C6.10656 13.5534 5.02655 14.6334 3.72655 14.6334C2.42655 14.6334 1.34655 13.5467 1.34655 12.2534V8.14669C1.27322 4.40002 4.23322 1.3667 7.97989 1.3667C11.7266 1.3667 14.6799 4.40003 14.6799 8.07336V12.1801C14.6799 13.4801 13.5999 14.5601 12.2999 14.5601C10.9999 14.5601 9.91989 13.4801 9.91989 12.1801V10.3067C9.91989 9.66005 10.4266 9.08004 11.1466 9.08004C11.7932 9.08004 12.3732 9.58672 12.3732 10.3067V12.3267" stroke="black" stroke-opacity="0.5" stroke-width="1.5" stroke-linecap="round" stroke-linejoin="round"/>
</svg>
